<svg width="275" height="71" viewBox="0 0 275 71" fill="none" xmlns="http://www.w3.org/2000/svg">
<path d="M29.3115 51.8115L31.0693 55.8545C30.6592 56.1768 29.751 56.4551 28.3447 56.6895C26.9678 56.9238 25.166 57.1289 22.9395 57.3047C20.3613 59.8242 17.7832 61.9189 15.2051 63.5889C12.6562 65.2588 10.1221 66.4893 7.60254 67.2803C7.0166 67.4561 6.34277 67.6465 5.58105 67.8516C5.1123 67.8516 4.59961 67.749 4.04297 67.5439C3.48633 67.3682 2.87109 67.1045 2.19727 66.7529C1.49414 66.3135 0.952148 65.8887 0.571289 65.4785C0.19043 65.0684 0 64.6436 0 64.2041C0 63.3252 0.424805 62.4756 1.27441 61.6553C2.12402 60.835 3.36914 60.0586 5.00977 59.3262C8.29102 57.8027 11.5283 56.2646 14.7217 54.7119C15.1904 54.7119 15.5273 54.8145 15.7324 55.0195C15.9375 55.1953 16.04 55.4297 16.04 55.7227C16.04 56.5137 15.4688 57.1875 14.3262 57.7441C13.2129 58.2715 12.6562 58.6523 12.6562 58.8867C12.8613 59.1797 13.0371 59.3262 13.1836 59.3262C13.5645 59.3262 14.3994 58.7549 15.6885 57.6123C17.0068 56.4697 17.6514 55.752 17.6221 55.459L17.4023 54.4482L17.4902 54.2725C18.252 53.5986 18.8086 52.998 19.1602 52.4707C19.541 51.9434 19.7314 51.5186 19.7314 51.1963C19.7314 50.4639 19.3652 49.4824 18.6328 48.252C17.9004 47.0215 16.8018 45.542 15.3369 43.8135C14.2236 42.4658 13.1104 41.2646 11.9971 40.21C10.8838 39.126 9.81445 38.1738 8.78906 37.3535C8.37891 37.002 8.02734 36.665 7.73438 36.3428C7.44141 35.9912 7.20703 35.6689 7.03125 35.376C6.70898 34.79 6.44531 34.3066 6.24023 33.9258C6.06445 33.5449 5.90332 33.2959 5.75684 33.1787C5.61035 33.0029 5.40527 32.7979 5.1416 32.5635C4.90723 32.2998 4.61426 32.0068 4.2627 31.6846C3.64746 31.04 3.16406 30.1465 2.8125 29.0039C2.49023 27.8613 2.3291 26.4404 2.3291 24.7412C2.3291 23.6279 2.47559 22.5586 2.76855 21.5332C3.09082 20.4785 3.54492 19.541 4.13086 18.7207C4.21875 18.5449 4.30664 18.3398 4.39453 18.1055C4.48242 17.8711 4.58496 17.6074 4.70215 17.3145C5.37598 15.9375 6.51855 14.458 8.12988 12.876C9.74121 11.2646 11.8506 9.56543 14.458 7.77832C14.8096 7.60254 15.2344 7.36816 15.7324 7.0752C16.2305 6.78223 16.7871 6.40137 17.4023 5.93262C17.7539 5.63965 18.1348 5.37598 18.5449 5.1416C18.9844 4.90723 19.4971 4.6875 20.083 4.48242C20.874 4.16016 21.7676 3.80859 22.7637 3.42773C24.2285 2.66602 25.4443 2.10938 26.4111 1.75781C27.3779 1.40625 28.1104 1.23047 28.6084 1.23047C29.5752 1.23047 30.293 1.52344 30.7617 2.10938C31.2598 2.69531 31.5088 3.54492 31.5088 4.6582C31.5088 5.88867 31.4062 6.89941 31.2012 7.69043C31.0254 8.45215 30.7764 8.96484 30.4541 9.22852C26.9971 11.9824 24.2139 14.0625 22.1045 15.4688C19.9951 16.8457 18.5156 17.5342 17.666 17.5342C17.2559 17.5342 16.9336 17.417 16.6992 17.1826C16.4648 16.9482 16.3477 16.5967 16.3477 16.1279C16.3477 15.3369 17.0068 14.4727 18.3252 13.5352C19.6436 12.5684 20.2881 11.8359 20.2588 11.3379L19.8633 11.0742C19.7168 11.0742 19.541 11.1182 19.3359 11.2061C19.1602 11.2939 18.9697 11.4111 18.7646 11.5576C16.1865 13.6377 14.2383 15.5127 12.9199 17.1826C11.6309 18.8232 10.9863 20.2588 10.9863 21.4893C10.9863 22.4561 11.1475 23.4375 11.4697 24.4336C11.8213 25.4297 12.3193 26.4551 12.9639 27.5098C13.4326 28.2422 14.1064 29.1797 14.9854 30.3223C15.8936 31.4355 17.0361 32.7832 18.4131 34.3652C20.3174 36.5625 21.7822 38.2617 22.8076 39.4629C23.833 40.6641 24.4043 41.2939 24.5215 41.3525C25.1074 42.1143 25.6055 42.876 26.0156 43.6377C26.4258 44.3994 26.7041 45.1318 26.8506 45.835C26.9971 46.3916 27.0996 47.0801 27.1582 47.9004C27.2168 48.7207 27.2461 49.7168 27.2461 50.8887C27.2461 51.5625 27.3486 51.958 27.5537 52.0752C27.7588 52.1631 28.0957 52.207 28.5645 52.207C28.7402 52.207 28.8721 52.1777 28.96 52.1191C29.0771 52.0312 29.1943 51.9287 29.3115 51.8115Z" fill="#CC6733"/>
<path d="M77.6268 3.47168C78.1248 3.47168 78.4764 3.75 78.6814 4.30664C78.8865 4.83398 78.9891 5.61035 78.9891 6.63574C78.9891 7.30957 78.8719 8.52539 78.6375 10.2832C78.4031 12.0117 78.0662 14.2822 77.6268 17.0947L78.1541 19.9512C77.9197 20.625 77.6853 21.416 77.451 22.3242C77.2166 23.2324 77.0115 24.2285 76.8357 25.3125C76.6014 26.543 76.3816 27.583 76.1766 28.4326C76.0008 29.2822 75.825 29.9707 75.6492 30.498C75.4148 31.4062 75.1951 32.2559 74.99 33.0469C74.8143 33.8086 74.6824 34.5703 74.5945 35.332C74.3895 37.1777 74.1111 38.9355 73.7596 40.6055C73.4373 42.2461 72.9978 43.8281 72.4412 45.3516C72.0603 46.4648 71.4744 48.5889 70.6834 51.7236C69.9217 54.8584 68.9402 58.9746 67.7391 64.0723C67.2117 66.3574 66.6258 68.0713 65.9812 69.2139C65.3367 70.3564 64.6336 70.9277 63.8719 70.9277C63.491 70.9277 63.2127 70.8398 63.0369 70.6641C62.8611 70.4883 62.7439 70.1807 62.6854 69.7412C62.6561 69.5947 62.6414 69.4336 62.6414 69.2578C62.6707 69.082 62.6854 68.5693 62.6854 67.7197C62.6561 67.3975 62.5682 67.0752 62.4217 66.7529L63.3006 63.3252C63.2713 62.9443 63.198 62.5342 63.0809 62.0947C63.0809 61.0693 63.3299 59.0039 63.8279 55.8984C64.3553 52.7637 65.1023 48.5742 66.0691 43.3301C66.4207 41.6016 66.7576 39.7119 67.0799 37.6611C67.0799 37.3096 67.0506 37.0605 66.992 36.9141C66.9334 36.7676 66.8162 36.6943 66.6404 36.6943C66.3182 36.8408 65.9812 36.9873 65.6297 37.1338L64.5311 36.6064C64.3553 36.665 63.9891 36.9434 63.4324 37.4414C62.9051 37.9102 62.5096 38.1445 62.2459 38.1445C61.6893 38.1445 60.8689 38.0566 59.785 37.8809C58.7303 37.6758 57.9393 37.5732 57.4119 37.5732C56.7674 37.5732 56.0789 37.749 55.3465 38.1006C54.6141 38.4229 53.8523 38.9209 53.0613 39.5947C51.6844 39.7998 50.4539 40.1367 49.3699 40.6055C48.3152 41.0449 47.3777 41.6162 46.5574 42.3193C46.1473 42.6416 45.7078 42.9932 45.2391 43.374C45.0047 43.5791 44.8289 44.3115 44.7117 45.5713C44.6238 46.8018 44.5799 48.501 44.5799 50.6689C44.5799 52.6611 44.6824 54.126 44.8875 55.0635C45.0926 56.001 45.4002 56.4697 45.8104 56.4697C46.074 56.4697 46.3084 56.4111 46.5135 56.2939C46.7186 56.1475 46.9676 55.9277 47.2605 55.6348C47.4363 55.4297 47.6414 55.2246 47.8758 55.0195C48.1102 54.7852 48.3006 54.5508 48.4471 54.3164L48.7986 54.2725C49.0037 54.2432 49.1502 54.3018 49.2381 54.4482C49.3553 54.5947 49.4139 54.8145 49.4139 55.1074C49.1209 55.752 48.8279 56.3379 48.535 56.8652C48.2713 57.3926 48.0369 57.832 47.8318 58.1836C46.9236 59.5605 46.0301 60.9229 45.1512 62.2705C44.6238 62.9736 43.9939 63.5156 43.2615 63.8965C42.5291 64.2773 41.6795 64.4678 40.7127 64.4678C39.9217 64.4678 39.3211 63.3984 38.9109 61.2598C38.5301 59.1211 38.3396 55.9277 38.3396 51.6797C38.3396 50.0391 38.2371 48.6182 38.032 47.417C37.827 46.1865 37.49 45.1318 37.0213 44.2529C36.5818 43.4912 36.2742 42.8174 36.0984 42.2314C35.9227 41.6455 35.8348 41.1475 35.8348 40.7373C35.8348 40.415 35.908 40.0488 36.0545 39.6387C36.2303 39.2285 36.4793 38.8184 36.8016 38.4082C37.1824 37.9395 37.4754 37.5586 37.6805 37.2656C37.9148 36.9434 38.0467 36.6797 38.076 36.4746C38.2518 36.0059 38.4129 35.3906 38.5594 34.6289C38.7352 33.8672 38.9256 32.9883 39.1307 31.9922C39.3064 31.3184 39.4676 30.3662 39.6141 29.1357C39.7605 27.9053 39.8631 26.4258 39.9217 24.6973C40.0682 21.416 40.3758 18.9258 40.8445 17.2266C41.3133 15.5273 41.5037 14.5166 41.4158 14.1943L41.1521 13.0957C41.2107 12.4805 41.2986 11.6895 41.4158 10.7227C41.533 9.75586 41.6941 8.64258 41.8992 7.38281C42.1629 7.20703 42.4559 6.95801 42.7781 6.63574C43.1004 6.28418 43.4373 5.85938 43.7889 5.36133C45.8104 4.59961 46.909 4.21875 47.0848 4.21875C48.1395 4.21875 48.9305 4.49707 49.4578 5.05371C49.9852 5.61035 50.2488 6.40137 50.2488 7.42676C50.2488 7.71973 50.1609 8.12988 49.9852 8.65723C49.8387 9.18457 49.6482 9.84375 49.4139 10.6348C49.1502 11.3086 48.8572 12.5537 48.535 14.3701C48.242 16.1865 47.9051 18.5156 47.5242 21.3574C47.2605 23.4082 46.9676 25.3418 46.6453 27.1582C46.3523 28.9453 46.0008 30.6152 45.5906 32.168C45.532 32.373 45.4881 32.6221 45.4588 32.915C45.4588 33.3545 45.532 33.6768 45.6785 33.8818C45.825 34.0576 46.0447 34.1455 46.3377 34.1455C47.4217 34.0576 48.4031 33.9697 49.282 33.8818C49.575 33.8818 50.5857 33.5596 52.3143 32.915H55.698C56.1668 32.915 56.8406 32.8711 57.7195 32.7832C58.6277 32.666 59.3016 32.6074 59.741 32.6074C60.1512 32.6074 60.7664 32.71 61.5867 32.915C62.4363 33.0908 63.0955 33.1787 63.5643 33.1787C63.9158 33.1787 64.3699 33.1201 64.9266 33.0029C65.4832 32.8857 66.157 32.6807 66.948 32.3877C67.3289 32.3877 67.6512 32.3438 67.9148 32.2559C68.1785 32.168 68.3103 32.0361 68.3103 31.8604C68.4568 31.4795 68.618 31.0107 68.7937 30.4541C68.9988 29.8975 69.2039 29.2529 69.409 28.5205C69.4676 27.8467 69.5408 27.041 69.6287 26.1035C69.7459 25.166 69.8924 24.0674 70.0682 22.8076C70.4783 20.4639 70.7713 18.5449 70.9471 17.0508C71.1521 15.5566 71.2547 14.502 71.2547 13.8867C71.2547 13.6523 71.2254 13.4326 71.1668 13.2275C71.1082 13.0225 71.0057 12.8613 70.8592 12.7441C70.6248 12.4805 70.3611 12.1582 70.0682 11.7773C70.2732 11.1914 70.493 10.7373 70.7273 10.415C71.4012 9.38965 71.9725 8.54004 72.4412 7.86621C72.91 7.16309 73.2908 6.66504 73.5838 6.37207C74.0525 5.87402 74.6092 5.39062 75.2537 4.92188C75.9275 4.42383 76.7186 3.94043 77.6268 3.47168Z" fill="#CC6733"/>
<path d="M80.7662 47.7686C80.6783 47.4463 80.6344 47.1826 80.6344 46.9775C80.6051 46.7725 80.5904 46.5967 80.5904 46.4502C80.5904 45.4834 80.7076 44.6631 80.942 43.9893C81.1764 43.2861 81.5279 42.7002 81.9967 42.2314C82.1139 42.1143 82.4068 41.9385 82.8756 41.7041C83.3736 41.4697 84.0182 41.1914 84.8092 40.8691C85.3658 40.6055 85.8053 40.2979 86.1275 39.9463C86.4791 39.5654 86.6695 39.1113 86.6988 38.584C86.7867 38.1738 86.9625 37.7051 87.2262 37.1777C87.4898 36.6504 87.7975 36.0791 88.149 35.4639C88.2662 35.2881 88.6178 34.2773 89.2037 32.4316C89.7896 30.5859 90.61 27.876 91.6646 24.3018C91.9576 23.2178 92.2506 22.2803 92.5436 21.4893C92.8365 20.6982 93.0855 20.0244 93.2906 19.4678C94.2281 16.9775 94.9898 15.3516 95.5758 14.5898C96.191 13.7988 96.6451 13.1543 96.9381 12.6562V12.4365L95.5758 10.2832L97.2896 8.30566L99.4869 7.86621C99.9264 7.80762 100.322 7.39746 100.673 6.63574C101.054 5.87402 101.699 5.03906 102.607 4.13086C102.812 4.07227 103.134 3.89648 103.574 3.60352C104.043 3.28125 104.629 2.8418 105.332 2.28516C105.947 1.78711 106.474 1.4209 106.914 1.18652C107.353 0.952148 107.69 0.834961 107.924 0.834961C108.715 0.834961 109.287 0.996094 109.638 1.31836C109.99 1.64062 110.166 2.06543 110.166 2.59277C110.166 3.2373 109.829 4.1748 109.155 5.40527C108.481 6.63574 108.144 7.57324 108.144 8.21777C108.144 8.51074 108.203 8.75977 108.32 8.96484C108.466 9.14062 108.628 9.25781 108.803 9.31641L114.077 12.1729C114.37 12.29 114.633 12.7588 114.868 13.5791C115.102 14.3701 115.293 15.4688 115.439 16.875C115.615 18.0469 115.747 19.0283 115.835 19.8193C115.952 20.5811 116.01 21.1963 116.01 21.665C115.805 22.9248 115.6 24.1992 115.395 25.4883C115.688 27.1289 116.01 28.8574 116.362 30.6738C116.186 32.4023 115.996 34.1602 115.791 35.9473C115.791 36.123 115.82 36.2842 115.879 36.4307C115.966 36.5479 116.084 36.6211 116.23 36.6504C116.728 36.6797 117.094 36.8115 117.329 37.0459C117.592 37.2803 117.724 37.6025 117.724 38.0127C117.724 38.54 117.636 38.9648 117.461 39.2871C117.314 39.5801 117.094 39.8145 116.801 39.9902C116.421 40.2246 116.113 40.4297 115.879 40.6055C115.673 40.7812 115.527 40.9277 115.439 41.0449L116.01 43.7695L115.219 50.0098C115.219 50.5371 115.175 51.2109 115.088 52.0312C115 52.8516 114.868 53.8037 114.692 54.8877C114.399 55.6787 114.179 56.3379 114.033 56.8652C113.886 57.3926 113.813 57.7441 113.813 57.9199C113.96 58.418 114.091 58.9453 114.209 59.502C114.033 60.293 113.842 61.084 113.637 61.875C113.462 62.666 113.286 63.4424 113.11 64.2041C112.788 65.2295 112.363 65.9766 111.836 66.4453C111.308 66.9434 110.693 67.1924 109.99 67.1924C109.609 67.1924 109.316 67.0166 109.111 66.665C108.935 66.3428 108.847 65.8447 108.847 65.1709C108.847 64.8779 108.891 64.4531 108.979 63.8965C109.096 63.3398 109.155 62.915 109.155 62.6221C109.155 62.417 109.126 62.1387 109.067 61.7871C109.008 61.4355 108.979 61.1279 108.979 60.8643C108.979 60.0439 109.052 58.7402 109.199 56.9531C109.375 55.1367 109.463 53.7744 109.463 52.8662C109.316 52.3682 109.17 51.8555 109.023 51.3281C109.111 50.7715 109.17 50.2148 109.199 49.6582C109.228 49.0723 109.213 48.5303 109.155 48.0322L109.814 46.8457L109.243 42.7588L108.935 42.627C108.759 42.627 108.496 42.7002 108.144 42.8467C107.822 42.9639 107.412 43.1689 106.914 43.4619C106.562 43.5791 106.005 43.7109 105.244 43.8574C104.511 43.9746 103.53 44.0479 102.299 44.0771C101.772 44.3408 101.274 44.5752 100.805 44.7803C100.131 44.9268 99.2818 45.1904 98.2564 45.5713C97.2311 45.9229 96.0445 46.3623 94.6969 46.8896C93.9059 47.2705 93.1734 47.5781 92.4996 47.8125C91.8551 48.0176 91.3131 48.1201 90.8736 48.1201C90.5221 48.1201 90.2291 48.252 89.9947 48.5156C89.7604 48.7793 89.5699 49.1602 89.4234 49.6582C89.3355 50.127 89.1158 50.7715 88.7643 51.5918C88.442 52.4121 88.0025 53.4375 87.4459 54.668C87.3287 54.9902 87.1676 55.4883 86.9625 56.1621C86.7574 56.8359 86.523 57.6709 86.2594 58.667C86.0836 59.0479 85.8785 59.5312 85.6441 60.1172C85.4098 60.6738 85.1461 61.333 84.8531 62.0947C84.8531 62.4463 84.8092 62.8857 84.7213 63.4131C84.6627 63.9111 84.5602 64.4971 84.4137 65.1709C84.2672 65.5811 84.0621 66.0938 83.7984 66.709C83.5641 67.3535 83.2564 68.0566 82.8756 68.8184C82.6412 69.2871 82.3043 69.624 81.8648 69.8291C81.4254 70.0635 80.8541 70.1807 80.151 70.1807C79.6529 70.1807 79.2721 70.0049 79.0084 69.6533C78.7154 69.3311 78.5689 68.8184 78.5689 68.1152C78.5689 67.3535 78.6568 66.4746 78.8326 65.4785C79.0084 64.5117 79.2867 63.4424 79.6676 62.2705C80.0777 60.7178 80.4293 59.458 80.7223 58.4912C81.0152 57.5244 81.1764 56.8066 81.2057 56.3379C81.2936 56.1328 81.4254 55.7666 81.6012 55.2393C81.777 54.7119 81.982 54.0674 82.2164 53.3057C82.4801 52.5732 82.7291 51.7383 82.9635 50.8008L82.7438 50.4492L81.3375 50.6689C81.0152 50.6396 80.7809 50.5078 80.6344 50.2734C80.4879 50.0391 80.4146 49.7314 80.4146 49.3506C80.4146 49.1455 80.4439 48.9258 80.5025 48.6914C80.5611 48.4277 80.649 48.1201 80.7662 47.7686ZM96.7184 39.6826C97.3922 39.6826 98.3883 39.5215 99.7066 39.1992C101.025 38.877 102.021 38.7158 102.695 38.7158C103.105 38.8037 103.515 38.877 103.925 38.9355C104.658 38.7891 105.376 38.6279 106.079 38.4521C106.782 38.2471 107.5 38.0713 108.232 37.9248C108.525 37.8662 108.745 37.7637 108.891 37.6172C109.038 37.4414 109.111 37.2217 109.111 36.958C109.052 36.0791 109.023 35.4785 109.023 35.1562C109.023 34.5996 109.052 33.9844 109.111 33.3105C109.199 32.6074 109.316 31.8896 109.463 31.1572L108.935 29.1797L109.111 27.3779C108.994 26.7334 108.891 26.1328 108.803 25.5762C108.745 24.9902 108.745 24.5068 108.803 24.126C108.745 24.0088 108.642 23.8184 108.496 23.5547C108.349 23.291 108.188 23.0127 108.012 22.7197C107.719 22.2217 107.412 21.7529 107.089 21.3135C106.796 20.8447 106.504 20.376 106.211 19.9072C105.8 19.3506 105.361 18.9404 104.892 18.6768C104.423 18.4131 103.94 18.2812 103.442 18.2812C102.856 18.2812 102.255 18.75 101.64 19.6875C101.025 20.625 100.454 22.0459 99.9264 23.9502C99.8385 24.1846 99.5895 24.668 99.1793 25.4004C98.7984 26.1328 98.2418 27.085 97.5094 28.2568C97.3922 29.3701 96.9967 30.7617 96.3229 32.4316C95.649 34.0723 94.7115 36.0059 93.5104 38.2324C93.3639 38.4375 93.276 38.6133 93.2467 38.7598C93.2467 38.9062 93.2467 39.0674 93.2467 39.2432C93.2467 39.4482 93.2906 39.6094 93.3785 39.7266C93.4957 39.8145 93.6568 39.8584 93.8619 39.8584C94.1549 39.8584 94.6236 39.8291 95.2682 39.7705C95.942 39.7119 96.4254 39.6826 96.7184 39.6826Z" fill="#CC6733"/>
<path d="M166.655 51.8115C167.299 53.2471 167.856 54.5947 168.325 55.8545C167.739 56.4404 166.962 56.9824 165.996 57.4805C165.029 57.9492 163.901 58.374 162.612 58.7549C162.26 58.8428 161.835 58.96 161.337 59.1064C160.869 59.2529 160.327 59.3994 159.711 59.5459C158.862 59.6045 157.836 59.6924 156.635 59.8096C155.463 59.9268 154.072 60.0879 152.46 60.293C150.175 62.0801 148.139 63.4863 146.352 64.5117C144.594 65.5371 143.115 66.1963 141.913 66.4893L141.254 67.0605C140.258 67.5 139.042 67.8516 137.607 68.1152C136.201 68.4082 134.531 68.6572 132.597 68.8623C132.246 68.7744 131.879 68.5547 131.498 68.2031C131.147 67.8809 130.737 67.4121 130.268 66.7969C130.561 66.4746 130.927 66.0498 131.367 65.5225C131.806 65.0244 132.289 64.4238 132.817 63.7207C133.256 63.0762 133.769 62.5635 134.355 62.1826C134.97 61.7725 135.746 61.4795 136.684 61.3037C137.651 61.0986 138.72 60.8057 139.892 60.4248C140.185 60.1904 140.537 59.9561 140.947 59.7217C141.386 59.458 141.87 59.1504 142.397 58.7988C143.071 58.4766 143.774 58.0225 144.506 57.4365C145.239 56.8506 146.044 56.1328 146.923 55.2832C148.095 54.1406 149.033 53.2324 149.736 52.5586C150.439 51.8555 150.864 51.416 151.01 51.2402C151.245 50.8301 151.494 50.4639 151.757 50.1416C152.021 49.79 152.343 49.4678 152.724 49.1748C153.134 48.4717 153.647 47.5928 154.262 46.5381C154.877 45.4541 155.61 44.209 156.459 42.8027C156.606 42.6562 156.782 42.4512 156.987 42.1875C157.221 41.8945 157.485 41.5869 157.778 41.2646C158.364 40.5908 158.788 39.5654 159.052 38.1885C159.316 36.8115 159.448 35.1416 159.448 33.1787C159.448 31.8311 159.096 30.4248 158.393 28.96C157.719 27.4951 156.664 25.9424 155.229 24.3018C154.028 22.9541 152.753 21.7529 151.406 20.6982C150.058 19.6143 148.696 18.7354 147.319 18.0615C146.264 17.5342 145.268 17.0215 144.33 16.5234C143.422 15.9961 142.587 15.5273 141.826 15.1172C141.415 16.582 140.888 18.6035 140.244 21.1816C139.628 23.7598 138.925 26.8945 138.134 30.5859C137.255 34.7461 136.596 38.1006 136.157 40.6494C135.717 43.1982 135.497 44.9121 135.497 45.791C135.322 46.5234 135.175 47.2559 135.058 47.9883L133.3 56.6455C132.275 58.6377 131.396 60.1172 130.663 61.084C129.931 62.0508 129.36 62.5342 128.95 62.5342C128.745 62.5342 128.554 62.373 128.378 62.0508C128.203 61.6992 128.027 61.1572 127.851 60.4248L128.378 57.9199C128.29 57.7441 128.203 57.4951 128.115 57.1729C128.29 55.2686 128.452 53.3496 128.598 51.416C128.745 49.4531 128.906 47.5049 129.081 45.5713C129.228 43.4033 129.448 41.3672 129.741 39.4629C130.034 37.5586 130.356 35.8008 130.707 34.1895L130.18 31.9482C130.385 31.3916 130.561 30.7031 130.707 29.8828C130.883 29.0625 131.03 28.125 131.147 27.0703C131.264 25.7227 131.367 24.6387 131.454 23.8184C131.542 22.9688 131.645 22.3828 131.762 22.0605C131.879 21.6797 131.996 21.1963 132.114 20.6104C132.26 20.0244 132.421 19.3213 132.597 18.501C132.685 18.1787 133.198 17.5635 134.135 16.6553C135.073 15.7178 135.673 15.0146 135.937 14.5459C136.552 14.458 137.006 14.3408 137.299 14.1943C137.592 14.0186 137.739 13.7988 137.739 13.5352C137.739 13.3301 137.563 13.1543 137.211 13.0078C136.889 12.8613 136.391 12.7441 135.717 12.6562C135.395 12.6562 135.014 12.627 134.575 12.5684C134.164 12.4805 133.74 12.3486 133.3 12.1729L129.697 10.415C128.935 10.0635 128.349 9.71191 127.939 9.36035C127.558 9.00879 127.368 8.64258 127.368 8.26172C127.543 7.67578 127.69 7.08984 127.807 6.50391C127.602 5.91797 127.426 5.43457 127.28 5.05371C127.162 4.67285 127.104 4.37988 127.104 4.1748C127.104 3.91113 127.162 3.70605 127.28 3.55957C127.426 3.41309 127.617 3.33984 127.851 3.33984C128.671 3.48633 129.389 3.61816 130.004 3.73535C130.297 3.64746 130.59 3.55957 130.883 3.47168C131.176 3.35449 131.469 3.2373 131.762 3.12012C132.465 3.12012 133.095 3.17871 133.652 3.2959C134.208 3.38379 134.633 3.48633 134.926 3.60352C135.336 3.80859 135.761 4.02832 136.201 4.2627C136.64 4.49707 137.065 4.70215 137.475 4.87793C137.827 4.81934 138.295 4.74609 138.881 4.6582C139.057 4.6582 139.218 4.6875 139.365 4.74609C139.716 4.98047 140.141 5.2002 140.639 5.40527C141.137 5.58105 141.708 5.74219 142.353 5.88867C143.056 6.00586 143.657 6.1377 144.155 6.28418C144.653 6.40137 145.048 6.5332 145.341 6.67969C148.447 8.29102 151.157 9.81445 153.471 11.25C155.815 12.6562 157.748 14.0332 159.272 15.3809C161.674 17.4609 163.447 19.6875 164.589 22.0605C165.732 24.4336 166.303 26.9092 166.303 29.4873C166.303 33.5889 165.087 37.9395 162.656 42.5391C160.224 47.1387 156.606 51.9727 151.801 57.041C152.211 56.8652 152.753 56.6748 153.427 56.4697C154.101 56.2646 154.877 56.0156 155.756 55.7227C157.602 55.3125 159.506 54.873 161.469 54.4043C162.7 54.0527 163.74 53.6719 164.589 53.2617C165.439 52.8516 166.127 52.3682 166.655 51.8115Z" fill="#CC6733"/>
<path d="M172.607 35.9033C172.607 35.5225 172.709 35.0684 172.914 34.541C173.149 34.0137 173.486 33.4131 173.925 32.7393C174.54 31.8604 174.994 31.1719 175.287 30.6738C175.61 30.1758 175.785 29.8535 175.815 29.707C175.961 29.3848 176.152 28.96 176.386 28.4326C176.65 27.9053 176.943 27.3047 177.265 26.6309C177.558 26.3086 177.895 25.6201 178.276 24.5654C178.656 23.4814 179.096 22.0605 179.594 20.3027C179.828 19.834 180.077 19.2773 180.341 18.6328C180.605 17.959 180.927 17.168 181.308 16.2598C181.425 15.5859 181.645 14.7949 181.967 13.8867C182.289 12.9785 182.699 11.9678 183.197 10.8545C183.813 9.7998 184.457 8.75977 185.131 7.73438C185.805 6.70898 186.772 5.94727 188.031 5.44922C188.529 5.77148 188.91 6.09375 189.174 6.41602C189.438 6.73828 189.57 7.0459 189.57 7.33887C189.57 8.07129 189.233 9.05273 188.559 10.2832C187.914 11.4844 187.592 12.3047 187.592 12.7441C187.592 12.9785 187.724 13.1982 187.988 13.4033C188.222 13.2861 188.647 12.9346 189.262 12.3486C189.877 11.7627 190.683 10.9717 191.679 9.97559C192.499 9.21387 193.232 8.59863 193.876 8.12988C194.55 7.63184 195.18 7.32422 195.766 7.20703C196.147 7.06055 196.63 6.92871 197.216 6.81152C197.802 6.69434 198.461 6.50391 199.194 6.24023C199.574 6.03516 199.882 5.83008 200.116 5.625C200.321 5.44922 200.644 5.27344 201.083 5.09766L201.742 5.22949C202.006 5.49316 202.738 5.77148 203.94 6.06445C205.141 6.32812 205.903 6.45996 206.225 6.45996C206.488 6.60645 206.796 6.84082 207.148 7.16309C207.499 7.48535 207.953 7.83691 208.51 8.21777C209.682 8.9209 210.766 9.96094 211.762 11.3379C212.787 12.6855 213.71 14.3701 214.53 16.3916C215.292 18.2373 215.863 19.9951 216.244 21.665C216.654 23.335 216.86 24.9463 216.86 26.499C216.86 31.3916 216.244 35.6396 215.014 39.2432C213.783 42.8467 211.923 45.8057 209.433 48.1201C209.198 48.3545 208.905 48.6475 208.554 48.999C208.232 49.3213 207.821 49.7168 207.323 50.1855V50.6689C207.265 50.9619 207.089 51.2842 206.796 51.6357C206.532 51.958 206.152 52.3389 205.654 52.7783C204.57 53.7744 203.471 54.7852 202.358 55.8105C201.244 56.8066 200.102 57.7881 198.93 58.7549C197.465 60.0146 196.073 61.0107 194.755 61.7432C193.437 62.4756 192.162 62.9883 190.932 63.2812C190.404 63.75 189.745 64.1162 188.954 64.3799C188.193 64.6143 187.255 64.7314 186.142 64.7314C184.501 64.7314 183.168 64.6289 182.143 64.4238C181.117 64.1895 180.385 63.8672 179.946 63.457C179.682 63.1934 179.374 62.9297 179.023 62.666C178.671 62.4023 178.261 62.0654 177.792 61.6553C177.294 61.2744 176.825 60.5859 176.386 59.5898C175.946 58.5645 175.551 57.2461 175.199 55.6348C174.965 54.4336 174.775 53.2764 174.628 52.1631C174.511 51.0205 174.452 49.9658 174.452 48.999C174.452 48.7061 174.526 48.2227 174.672 47.5488C174.819 46.875 174.877 46.3623 174.848 46.0107C174.848 45.3369 174.819 44.751 174.76 44.2529C174.76 43.7256 174.921 42.8906 175.243 41.748C175.566 40.6055 175.727 39.6973 175.727 39.0234C175.727 38.877 175.639 38.6572 175.463 38.3643C174.994 38.8916 174.657 39.375 174.452 39.8145C174.277 40.1074 174.071 40.3271 173.837 40.4736C173.603 40.6201 173.383 40.6934 173.178 40.6934C172.856 40.6934 172.592 40.5615 172.387 40.2979C172.211 40.0342 172.123 39.6387 172.123 39.1113C172.123 38.7598 172.196 38.2324 172.343 37.5293C172.519 36.8262 172.607 36.2842 172.607 35.9033ZM198.974 14.4141C198.271 14.4141 197.553 14.502 196.821 14.6777C196.088 14.8535 195.341 15.1025 194.579 15.4248L190.317 17.3145C190.024 17.4609 189.687 17.6953 189.306 18.0176C188.954 18.3398 188.559 18.7793 188.119 19.3359L186.098 21.8408C185.453 22.6025 184.882 23.9941 184.384 26.0156C183.886 28.0371 183.446 30.6738 183.066 33.9258C182.773 36.416 182.568 38.7451 182.45 40.9131C182.333 43.0518 182.275 45.0293 182.275 46.8457C182.275 50.5664 182.846 53.3496 183.988 55.1953C185.131 57.0117 186.86 57.9199 189.174 57.9199C190.258 57.9199 191.474 57.6416 192.821 57.085C194.169 56.499 195.634 55.6201 197.216 54.4482C198.564 53.4521 199.75 52.4561 200.776 51.46C201.801 50.4346 202.651 49.3945 203.324 48.3398C203.617 47.9297 204.071 47.0654 204.687 45.7471C205.331 44.4287 206.21 42.627 207.323 40.3418C208.056 38.6719 208.627 36.9873 209.037 35.2881C209.447 33.5596 209.653 31.7871 209.653 29.9707C209.477 29.0918 209.286 28.2275 209.081 27.3779L209.389 25.4883C209.096 25.1367 208.847 24.8145 208.642 24.5215C208.554 24.2871 208.481 24.0967 208.422 23.9502C207.514 20.7861 206.283 18.4131 204.731 16.8311C203.178 15.2197 201.259 14.4141 198.974 14.4141Z" fill="#CC6733"/>
<path d="M230.15 0C230.795 0 231.337 0.102539 231.776 0.307617C232.245 0.483398 232.626 0.717773 232.919 1.01074C233.183 1.27441 233.432 1.62598 233.666 2.06543C233.93 2.47559 234.252 2.98828 234.633 3.60352C235.102 4.45312 235.438 5.1123 235.644 5.58105C235.849 6.02051 235.951 6.31348 235.951 6.45996C235.746 8.15918 235.556 9.78516 235.38 11.3379C235.263 12.9785 235.072 14.6631 234.809 16.3916C234.691 16.8018 234.589 17.2559 234.501 17.7539C234.618 18.4863 234.706 19.2627 234.765 20.083C234.853 20.9033 234.911 21.7236 234.94 22.5439C234.999 23.1885 235.028 23.9209 235.028 24.7412C235.028 25.5322 234.999 26.4404 234.94 27.4658C234.911 28.7549 234.882 29.8096 234.853 30.6299C234.823 31.4209 234.809 31.9629 234.809 32.2559C234.809 32.4609 234.823 32.6953 234.853 32.959C234.882 33.2227 234.94 33.5156 235.028 33.8379C235.087 34.248 235.189 34.7607 235.336 35.376V38.1445C235.365 39.2578 235.717 41.8359 236.391 45.8789C237.064 49.9219 237.504 52.0898 237.709 52.3828C237.914 52.2656 238.09 52.1777 238.236 52.1191L241.664 45.9668C241.84 45.4688 242.06 44.8389 242.323 44.0771C242.616 43.2861 242.953 42.3779 243.334 41.3525C244.652 38.7744 245.897 35.4199 247.069 31.2891C248.271 27.1289 249.384 22.207 250.409 16.5234C250.761 14.8828 251.215 13.5791 251.771 12.6123C252.357 11.6455 253.002 11.0596 253.705 10.8545L257.616 9.44824C258.29 9.71191 258.773 10.0781 259.066 10.5469C259.359 10.9863 259.506 11.5723 259.506 12.3047C259.506 13.2129 259.345 14.6924 259.022 16.7432C258.7 18.7646 258.202 21.3135 257.528 24.3896C257.499 25.0635 257.411 25.8984 257.265 26.8945C257.147 27.8906 257.001 29.0625 256.825 30.4102C256.591 31.4648 256.4 32.2998 256.254 32.915C256.137 33.5303 256.078 33.9111 256.078 34.0576C256.078 34.8193 256.093 35.6982 256.122 36.6943C256.151 37.6611 256.181 38.7598 256.21 39.9902C256.269 41.4844 256.298 42.7295 256.298 43.7256C256.298 44.7217 256.298 45.4248 256.298 45.835C256.327 47.7979 256.386 49.292 256.474 50.3174C256.591 51.3135 256.737 51.8115 256.913 51.8115C257.206 51.8115 257.66 51.1816 258.275 49.9219C258.92 48.6621 259.696 46.7578 260.604 44.209C261.337 42.2754 261.996 40.4443 262.582 38.7158C263.197 36.9873 263.739 35.3613 264.208 33.8379C264.501 33.5156 264.735 33.0615 264.911 32.4756C265.087 31.8896 265.204 31.1426 265.263 30.2344C265.731 28.9746 266.186 27.6562 266.625 26.2793C267.064 24.873 267.533 23.4229 268.031 21.9287C268.324 21.0498 268.632 19.9512 268.954 18.6328C269.306 17.3145 269.716 15.7471 270.185 13.9307L269.613 12.085C269.701 11.7334 269.833 11.2939 270.009 10.7666C270.185 10.2393 270.346 9.60938 270.492 8.87695C271.283 7.61719 271.986 6.66504 272.602 6.02051C273.246 5.37598 273.759 5.05371 274.14 5.05371C274.433 5.05371 274.638 5.21484 274.755 5.53711C274.872 5.83008 274.931 6.31348 274.931 6.9873C274.931 8.77441 274.887 10.166 274.799 11.1621C274.74 12.1289 274.652 12.7588 274.535 13.0518C274.33 13.4619 274.154 13.8574 274.008 14.2383C273.861 14.5898 273.744 14.8828 273.656 15.1172L274.228 17.2705C274.052 17.6807 273.847 18.4277 273.612 19.5117C273.378 20.5664 273.114 21.958 272.821 23.6865C272.528 25.3271 272.265 26.6309 272.03 27.5977C271.796 28.5645 271.576 29.209 271.371 29.5312C271.283 30.0879 271.093 30.7617 270.8 31.5527C270.507 32.3438 270.155 33.2812 269.745 34.3652C269.569 34.7461 269.379 35.3467 269.174 36.167C268.969 36.958 268.72 37.9102 268.427 39.0234C268.222 39.6973 267.958 40.5029 267.636 41.4404C267.313 42.3486 266.947 43.4619 266.537 44.7803C266.244 45.1611 265.951 45.6738 265.658 46.3184C265.395 46.9629 265.146 47.7686 264.911 48.7354C264.765 49.2041 264.486 49.8926 264.076 50.8008C263.695 51.6797 263.212 52.8223 262.626 54.2285C262.011 55.6934 261.483 56.8213 261.044 57.6123C260.604 58.4033 260.297 58.8428 260.121 58.9307L259.066 59.5459C258.832 59.8389 258.539 60.0439 258.188 60.1611C257.836 60.249 257.382 60.2783 256.825 60.249C256.298 60.5713 255.829 60.8203 255.419 60.9961C255.038 61.1719 254.73 61.2598 254.496 61.2598C253.383 61.2598 252.489 60.8203 251.815 59.9414C251.142 59.0625 250.658 57.7148 250.365 55.8984C250.277 54.6387 250.175 53.3789 250.058 52.1191C249.97 50.8301 249.867 49.5264 249.75 48.208C249.691 47.5635 249.574 46.7139 249.398 45.6592C249.252 44.5752 249.003 43.2861 248.651 41.792C248.036 42.9639 247.392 44.1797 246.718 45.4395C246.073 46.6699 245.399 47.9736 244.696 49.3506C244.726 49.6143 244.521 50.2588 244.081 51.2842C243.642 52.3096 243.026 53.7305 242.235 55.5469C241.415 57.4512 240.536 59.3701 239.599 61.3037C238.925 62.4463 238.192 63.3105 237.401 63.8965C236.64 64.4531 235.775 64.7314 234.809 64.7314C234.34 64.7314 233.886 64.3652 233.446 63.6328C233.007 62.9004 232.567 61.7871 232.128 60.293C231.864 59.3848 231.601 58.4766 231.337 57.5684C231.103 56.6309 230.854 55.6787 230.59 54.7119C230.736 54.3018 230.839 53.9648 230.897 53.7012C230.692 53.291 230.473 52.7344 230.238 52.0312C230.033 51.3281 229.799 50.4785 229.535 49.4824C229.447 48.8672 229.33 48.0762 229.184 47.1094C229.037 46.1426 228.876 45 228.7 43.6816C228.671 43.2715 228.642 42.8613 228.612 42.4512C228.583 42.0117 228.554 41.5869 228.524 41.1768C228.495 40.8545 228.407 40.5029 228.261 40.1221C228.144 39.7412 227.953 39.3018 227.689 38.8037C227.631 38.6279 227.572 38.2031 227.514 37.5293C227.484 36.8262 227.44 35.8594 227.382 34.6289C227.353 33.6328 227.265 32.8125 227.118 32.168C226.972 31.4941 226.752 31.0547 226.459 30.8496L225.272 29.9707C225.097 29.5605 224.95 28.9307 224.833 28.0811C224.745 27.2021 224.701 26.1328 224.701 24.873C224.701 21.5625 224.892 18.1055 225.272 14.502C225.683 10.8984 226.283 7.10449 227.074 3.12012C227.279 2.09473 227.646 1.31836 228.173 0.791016C228.7 0.263672 229.359 0 230.15 0Z" fill="#CC6733"/>
</svg>
